<svg xmlns="http://www.w3.org/2000/svg" xmlns:xlink="http://www.w3.org/1999/xlink" viewBox="0,0,256,256" width="24px" height="24px" fill-rule="nonzero"><g fill="#0000ff" fill-rule="nonzero" stroke="none" stroke-width="1" stroke-linecap="butt" stroke-linejoin="miter" stroke-miterlimit="10" stroke-dasharray="" stroke-dashoffset="0" font-family="none" font-weight="none" font-size="none" text-anchor="none" style="mix-blend-mode: normal"><g transform="scale(10.66667,10.66667)"><path d="M12,2c-5.514,0 -10,4.486 -10,10c0,5.514 4.486,10 10,10c5.514,0 10,-4.486 10,-10c0,-5.514 -4.486,-10 -10,-10zM12,6h1v1.85742c4.731,2.586 1,5.14258 1,5.14258h-1v1h1.5l1.5,-1h2v1c-0.892,0.198 -2.13203,0.386 -2.33203,1c-0.398,1.194 -1.51639,2 -2.77539,2h-2.89258c-1.657,0 -3,-1.343 -3,-3v-1h2c0,0.596 0.24966,1 0.84766,1h2.15234v-1h-2c2.58,-2.217 0,-6 0,-6c0,0 0.97,0.27631 2,0.57031zM9.31055,7.79883c1.656,2.13 -0.31055,4.20117 -0.31055,4.20117h-3z"></path></g></g></svg>